HIERARCHY
ROOT character_A_root
{
	OFFSET 0.000000 0.000000 0.000000
	CHANNELS 6 Xposition Yposition Zposition Xrotation Yrotation Zrotation
	JOINT character_A_pelvis
	{
		OFFSET 0.000000 0.000000 0.000000
		CHANNELS 3 Xrotation Yrotation Zrotation
		JOINT character_A_spine
		{
			OFFSET -0.006400 0.538076 0.000000
			CHANNELS 3 Xrotation Yrotation Zrotation
			JOINT character_A_head
			{
				OFFSET 0.012744 0.245383 0.000000
				CHANNELS 3 Xrotation Yrotation Zrotation
				JOINT character_A_nose
				{
					OFFSET -0.008787 -0.131621 -0.002605
					CHANNELS 3 Xrotation Yrotation Zrotation
					End Site
					{
						OFFSET 0.000000 0.050000 0.000000
					}
				}
			}
			JOINT character_A_left_shoulder
			{
				OFFSET 0.108057 -0.069769 0.094471
				CHANNELS 3 Xrotation Yrotation Zrotation
				JOINT character_A_left_elbow
				{
					OFFSET 0.031628 -0.239596 -0.139088
					CHANNELS 3 Xrotation Yrotation Zrotation
					JOINT character_A_left_wrist
					{
						OFFSET 0.010597 -0.101834 -0.186326
						CHANNELS 3 Xrotation Yrotation Zrotation
						End Site
						{
							OFFSET 0.000000 0.050000 0.000000
						}
					}
				}
			}
			JOINT character_A_right_shoulder
			{
				OFFSET -0.114595 -0.059038 0.102763
				CHANNELS 3 Xrotation Yrotation Zrotation
				JOINT character_A_right_elbow
				{
					OFFSET -0.054650 -0.246550 -0.079184
					CHANNELS 3 Xrotation Yrotation Zrotation
					JOINT character_A_right_wrist
					{
						OFFSET -0.039546 -0.120930 -0.167408
						CHANNELS 3 Xrotation Yrotation Zrotation
						End Site
						{
							OFFSET 0.000000 0.050000 0.000000
						}
					}
				}
			}
		}
		JOINT character_A_left_hip
		{
			OFFSET 0.064495 -0.018473 0.101805
			CHANNELS 3 Xrotation Yrotation Zrotation
			JOINT character_A_left_knee
			{
				OFFSET -0.013415 -0.404926 0.097567
				CHANNELS 3 Xrotation Yrotation Zrotation
				JOINT character_A_left_ankle
				{
					OFFSET -0.033827 -0.357830 0.207383
					CHANNELS 3 Xrotation Yrotation Zrotation
					JOINT character_A_left_big_toe
					{
						OFFSET -0.008355 -0.113888 0.066374
						CHANNELS 3 Xrotation Yrotation Zrotation
						End Site
						{
							OFFSET 0.000000 0.050000 0.000000
						}
					}
					JOINT character_A_left_small_toe
					{
						OFFSET 0.019861 -0.105049 0.045203
						CHANNELS 3 Xrotation Yrotation Zrotation
						End Site
						{
							OFFSET 0.000000 0.050000 0.000000
						}
					}
					JOINT character_A_left_heel
					{
						OFFSET -0.015740 -0.054451 0.041248
						CHANNELS 3 Xrotation Yrotation Zrotation
						End Site
						{
							OFFSET 0.000000 0.050000 0.000000
						}
					}
				}
			}
		}
		JOINT character_A_right_hip
		{
			OFFSET -0.060818 -0.017714 0.289385
			CHANNELS 3 Xrotation Yrotation Zrotation
			JOINT character_A_right_knee
			{
				OFFSET 0.024497 -0.400024 0.102706
				CHANNELS 3 Xrotation Yrotation Zrotation
				JOINT character_A_right_ankle
				{
					OFFSET 0.016037 -0.354408 0.210815
					CHANNELS 3 Xrotation Yrotation Zrotation
					JOINT character_A_right_big_toe
					{
						OFFSET -0.000881 -0.112993 0.055364
						CHANNELS 3 Xrotation Yrotation Zrotation
						End Site
						{
							OFFSET 0.000000 0.050000 0.000000
						}
					}
					JOINT character_A_right_small_toe
					{
						OFFSET -0.021559 -0.104872 0.042888
						CHANNELS 3 Xrotation Yrotation Zrotation
						End Site
						{
							OFFSET 0.000000 0.050000 0.000000
						}
					}
					JOINT character_A_right_heel
					{
						OFFSET 0.008712 -0.057795 0.038858
						CHANNELS 3 Xrotation Yrotation Zrotation
						End Site
						{
							OFFSET 0.000000 0.050000 0.000000
						}
					}
				}
			}
		}
	}
}
MOTION
Frames: 17
Frame Time: 0.03333333
3.076021 -0.300587 4.951314 0.000000 0.000000 0.000000 -0.734653 2.423079 -8.513121 13.827193 -2.681411 12.484718 -13.359648 3.624260 -18.504165 -0.000000 0.000000 -0.000000 -28.986839 5.263157 -6.952050 -0.180550 23.675404 -5.417980 0.000000 0.000000 0.000000 4.185709 -0.941246 -7.430099 -2.834724 12.457419 -8.778957 0.000000 0.000000 0.000000 13.101058 -3.489882 1.456164 7.996273 -5.991825 -2.546517 -16.501565 10.091720 20.192961 0.000000 0.000000 -0.000000 0.000000 0.000000 -0.000000 0.000000 0.000000 -0.000000 -103.921947 -0.523857 -22.192372 67.453478 8.367111 -5.098081 101.976881 31.434265 25.586389 -0.000000 0.000000 -0.000000 -0.000000 0.000000 -0.000000 -0.000000 0.000000 -0.000000
3.071759 -0.301002 4.911344 0.000000 0.000000 0.000000 0.144296 2.826661 -9.119007 15.366516 -3.155302 12.671069 -15.658424 4.013156 -16.327997 0.000000 0.000000 0.000000 -32.282920 5.681197 -6.392160 0.702297 22.172990 -4.471486 0.000000 0.000000 0.000000 0.542388 0.182563 -7.142187 5.435657 7.348667 -6.610864 0.000000 0.000000 -0.000000 12.880857 -3.668417 2.650338 10.601082 -6.537950 -2.987820 -17.067706 9.786149 20.398540 0.000000 0.000000 0.000000 0.000000 0.000000 0.000000 0.000000 0.000000 0.000000 -107.906152 -0.619268 -22.704071 65.288827 7.989787 -4.975064 123.440621 25.429644 10.735900 0.000000 0.000000 0.000000 0.000000 0.000000 0.000000 0.000000 0.000000 0.000000
3.067069 -0.302207 4.863590 0.000000 0.000000 0.000000 0.775570 2.958051 -9.441805 16.411202 -3.433015 12.633432 -17.276849 4.297247 -13.963921 0.000000 0.000000 0.000000 -33.982645 6.085034 -6.044619 1.236371 20.915364 -3.786452 -0.000000 0.000000 0.000000 -2.139845 0.889656 -6.018174 7.483909 3.910207 -4.126733 0.000000 0.000000 0.000000 12.651357 -3.695972 3.295262 10.453385 -6.741131 -3.265382 -16.269314 10.372912 20.077690 0.000000 0.000000 -0.000000 0.000000 0.000000 -0.000000 0.000000 0.000000 -0.000000 -110.643275 -1.215595 -22.215512 63.548778 7.485783 -4.682668 153.044526 5.670801 -3.537130 -0.000000 0.000000 0.000000 -0.000000 0.000000 0.000000 -0.000000 0.000000 0.000000
3.060892 -0.302014 4.804800 0.000000 0.000000 0.000000 1.845703 3.467617 -10.165451 17.043164 -3.970399 13.371209 -18.805170 4.583882 -11.849597 -0.000000 0.000000 -0.000000 -35.357558 6.686137 -6.100582 0.698143 19.491896 -2.878844 -0.000000 0.000000 0.000000 -2.889390 0.986689 -5.297453 0.852239 3.116150 -1.761275 -0.000000 0.000000 0.000000 11.965365 -4.076671 4.445859 12.143487 -7.234542 -3.663650 -17.226380 10.797518 20.821246 0.000000 0.000000 0.000000 0.000000 0.000000 0.000000 0.000000 0.000000 0.000000 -109.624064 -1.343235 -23.718945 65.655333 8.974796 1.185783 -172.263070 -12.131017 1.433506 0.000000 0.000000 -0.000000 0.000000 0.000000 -0.000000 0.000000 0.000000 -0.000000
3.059960 -0.309256 4.738707 0.000000 0.000000 0.000000 1.821905 3.181828 -9.993322 17.071447 -3.609776 13.174782 -18.917085 4.433463 -10.021660 0.000000 0.000000 0.000000 -37.003734 6.895417 -6.567665 1.296333 19.745532 -2.362230 0.000000 0.000000 0.000000 -5.077555 1.015952 -3.005513 -4.357088 1.017082 0.028752 -0.000000 0.000000 0.000000 12.069317 -3.826250 4.205544 10.355772 -7.090908 -3.704509 -14.123464 12.179199 20.847886 -0.000000 0.000000 0.000000 -0.000000 0.000000 0.000000 -0.000000 0.000000 0.000000 -106.757185 -1.098856 -24.124653 72.101307 11.391977 3.533518 -67.072739 38.939050 -25.313311 -0.000000 0.000000 -0.000000 -0.000000 0.000000 -0.000000 -0.000000 0.000000 -0.000000
3.055962 -0.312753 4.657819 0.000000 0.000000 0.000000 1.661280 2.571206 -10.341268 18.018477 -2.783923 13.682971 -19.794412 4.595658 -9.378423 -0.000000 0.000000 -0.000000 -38.694850 7.279959 -6.907965 2.364059 20.046307 -2.242297 -0.000000 0.000000 -0.000000 -6.716318 1.079354 -2.009021 -7.406743 1.490510 -0.367585 -0.000000 0.000000 -0.000000 12.227632 -3.197825 4.233093 7.281584 -6.218206 -2.999217 -7.762925 7.885106 20.508843 -0.000000 0.000000 -0.000000 -0.000000 0.000000 -0.000000 -0.000000 0.000000 -0.000000 -98.926145 -2.469068 -23.827279 79.736625 14.151870 2.769555 0.329472 68.106495 -47.050411 0.000000 0.000000 0.000000 0.000000 0.000000 0.000000 0.000000 0.000000 0.000000
3.049744 -0.315283 4.588405 0.000000 0.000000 0.000000 1.915444 2.180213 -11.256917 18.708005 -2.223671 14.680958 -20.731738 4.904092 -8.545790 -0.000000 0.000000 0.000000 -41.848232 7.838041 -7.110126 3.677735 20.665229 -1.823836 0.000000 0.000000 0.000000 -8.430297 1.561787 -2.014498 -10.765873 3.772830 -1.129862 -0.000000 0.000000 -0.000000 12.009307 -2.763079 4.805077 4.295616 -5.074985 -1.822926 -3.723586 5.225860 18.423544 -0.000000 0.000000 -0.000000 -0.000000 0.000000 -0.000000 -0.000000 0.000000 -0.000000 -88.286001 -6.516056 -20.115268 88.549477 14.219987 -1.226163 -14.241781 49.868956 -15.328266 0.000000 0.000000 -0.000000 0.000000 0.000000 -0.000000 0.000000 0.000000 -0.000000
3.041446 -0.323551 4.527258 0.000000 0.000000 0.000000 1.520333 2.301161 -11.710615 19.274734 -2.274154 15.201668 -20.821632 5.114205 -8.768010 0.000000 0.000000 0.000000 -44.633200 8.752429 -7.788688 5.232642 20.895339 -0.681070 -0.000000 0.000000 -0.000000 -9.682468 2.148229 -2.355195 -14.997633 6.259015 -1.223063 -0.000000 0.000000 -0.000000 12.482825 -2.715936 5.225238 1.948865 -4.222574 -0.914082 -0.558957 4.069544 16.249422 -0.000000 0.000000 0.000000 -0.000000 0.000000 0.000000 -0.000000 0.000000 0.000000 -71.142357 -10.353036 -13.369495 82.381208 11.739552 -1.219973 -13.832723 15.936228 9.093225 0.000000 0.000000 -0.000000 0.000000 0.000000 -0.000000 0.000000 0.000000 -0.000000
3.035219 -0.332145 4.483075 0.000000 0.000000 0.000000 0.992709 2.244874 -11.906421 19.527282 -2.170498 15.222147 -20.553323 5.116200 -8.547125 0.000000 0.000000 -0.000000 -46.091516 9.432680 -8.404635 6.128824 20.689906 0.421838 0.000000 0.000000 0.000000 -10.536868 2.504856 -2.308274 -17.742840 8.310714 -1.460654 -0.000000 0.000000 0.000000 13.021214 -2.501443 5.413862 -0.353651 -3.635038 -0.305626 3.775817 3.304122 14.960599 -0.000000 0.000000 0.000000 -0.000000 0.000000 0.000000 -0.000000 0.000000 0.000000 -54.315478 -11.492152 -6.864742 70.557259 9.737438 0.389088 -6.137813 -5.180683 17.390272 -0.000000 0.000000 0.000000 -0.000000 0.000000 0.000000 -0.000000 0.000000 0.000000
3.030366 -0.347703 4.436766 0.000000 0.000000 0.000000 0.058401 1.790606 -11.491079 18.895363 -1.846467 14.100702 -19.160026 4.752699 -8.576628 0.000000 0.000000 -0.000000 -45.768619 9.790192 -9.092492 5.320759 19.769668 1.829858 0.000000 0.000000 -0.000000 -10.946985 2.598471 -1.505802 -21.774682 9.867918 -0.994784 -0.000000 0.000000 -0.000000 13.839709 -1.939418 4.981043 -4.417660 -3.168178 0.037548 8.744302 0.509181 11.868457 0.000000 0.000000 -0.000000 0.000000 0.000000 -0.000000 0.000000 0.000000 -0.000000 -36.313318 -9.889356 -0.061022 55.462314 7.238437 1.731326 0.427224 -17.116025 22.761325 -0.000000 0.000000 -0.000000 -0.000000 0.000000 -0.000000 -0.000000 0.000000 -0.000000
3.009128 -0.365410 4.269384 0.000000 0.000000 0.000000 -0.668577 1.244081 -10.323591 18.222324 -1.653469 11.855110 -17.979948 4.324164 -9.506378 -0.000000 0.000000 0.000000 -41.340023 9.997825 -9.754447 -0.470040 17.951907 2.750182 -0.000000 0.000000 -0.000000 -12.055247 2.569384 0.217595 -26.467890 9.586668 0.500911 0.000000 0.000000 -0.000000 14.420669 -1.655624 3.457591 -8.769403 -2.903841 0.336685 9.662949 2.645789 8.148744 0.000000 0.000000 -0.000000 0.000000 0.000000 -0.000000 0.000000 0.000000 -0.000000 -22.335766 -6.702106 5.383524 39.687385 3.610261 0.913694 -1.646036 -22.867551 25.595616 -0.000000 0.000000 -0.000000 -0.000000 0.000000 -0.000000 -0.000000 0.000000 -0.000000
2.984478 -0.380966 4.075449 0.000000 0.000000 0.000000 -2.261223 -3.619624 -10.754419 4.524902 2.523199 9.046092 -3.778836 2.272946 -9.545841 -0.000000 0.000000 -0.000000 -22.945588 8.465348 -10.093442 -8.118300 11.461617 4.487231 0.000000 0.000000 -0.000000 -12.547527 2.636417 4.695790 -17.826918 9.267411 -1.164429 0.000000 0.000000 -0.000000 11.245208 4.327527 6.649950 -9.011745 -2.328037 -2.008693 12.390160 -14.330649 11.297349 -0.000000 0.000000 -0.000000 -0.000000 0.000000 -0.000000 -0.000000 0.000000 -0.000000 -17.094386 -1.253765 6.395244 30.476564 3.448427 2.185647 -6.689997 -20.502667 17.921943 0.000000 0.000000 -0.000000 0.000000 0.000000 -0.000000 0.000000 0.000000 -0.000000
2.958946 -0.393098 3.867444 0.000000 0.000000 0.000000 -2.507150 -4.322850 -9.625353 -2.103653 7.463472 7.611706 2.359190 -2.935221 -7.571354 0.000000 0.000000 0.000000 -13.412775 3.408972 -10.899219 -12.251596 9.070243 4.374068 0.000000 0.000000 0.000000 -10.908150 -0.827933 2.334876 -13.455122 3.536531 1.650361 0.000000 0.000000 -0.000000 5.181044 4.324944 6.257999 -5.671068 -2.112403 -2.342022 9.114812 -12.704497 8.207730 -0.000000 0.000000 0.000000 -0.000000 0.000000 0.000000 -0.000000 0.000000 0.000000 -15.819001 0.139915 6.766051 26.068272 2.535438 1.617564 -8.699963 -17.473461 14.667662 0.000000 0.000000 -0.000000 0.000000 0.000000 -0.000000 0.000000 0.000000 -0.000000
2.932938 -0.398282 3.669608 0.000000 0.000000 0.000000 -1.831006 -3.390958 -8.777445 -0.409785 4.323398 7.138081 0.502369 -0.621328 -6.322538 -0.000000 0.000000 -0.000000 -12.026866 5.531076 -10.294399 -14.693624 8.189227 3.695544 -0.000000 0.000000 -0.000000 -3.986573 -0.578407 3.645769 -19.959137 2.470812 2.218021 -0.000000 0.000000 -0.000000 -0.639536 2.599090 5.232670 -2.577979 -1.925373 -1.942877 7.343161 -7.922523 4.697588 0.000000 0.000000 -0.000000 0.000000 0.000000 -0.000000 0.000000 0.000000 -0.000000 -15.204528 -0.238368 7.302179 22.529818 1.790289 0.848737 -7.428036 -23.624373 18.121328 -0.000000 0.000000 -0.000000 -0.000000 0.000000 -0.000000 -0.000000 0.000000 -0.000000
2.915058 -0.401365 3.520363 0.000000 0.000000 0.000000 -1.297886 -2.237964 -7.782252 2.055401 1.867504 6.344489 -2.114113 0.878808 -5.081152 0.000000 0.000000 0.000000 -12.234524 6.139282 -8.824239 -15.506644 7.979989 2.624183 0.000000 0.000000 -0.000000 -0.502655 -0.540092 4.809889 -22.685380 1.370670 2.428494 -0.000000 0.000000 -0.000000 -3.910237 1.006096 3.443605 -1.436675 -1.746370 -1.309270 6.765485 -2.385477 1.607442 -0.000000 0.000000 -0.000000 -0.000000 0.000000 -0.000000 -0.000000 0.000000 -0.000000 -14.203631 -0.778280 7.096009 19.908898 1.410892 0.414076 -5.677164 -28.986935 21.147279 0.000000 0.000000 -0.000000 0.000000 0.000000 -0.000000 0.000000 0.000000 -0.000000
2.894082 -0.409122 3.361387 0.000000 0.000000 0.000000 -1.159985 -1.571489 -6.747452 1.923398 0.184839 5.949311 -1.905456 1.822291 -4.628398 -0.000000 0.000000 0.000000 -12.427231 6.390266 -8.098975 -16.393706 8.026070 2.009957 0.000000 0.000000 -0.000000 0.392439 0.022815 5.087168 -24.713154 0.200447 3.008029 -0.000000 0.000000 -0.000000 -8.447626 -0.006060 1.195592 1.914587 -1.209885 0.280764 7.986312 -11.262307 3.141787 -0.000000 0.000000 0.000000 -0.000000 0.000000 0.000000 -0.000000 0.000000 0.000000 -14.828622 -1.116721 7.352201 17.815722 0.712570 -0.846605 -3.921831 -19.770729 16.689164 -0.000000 0.000000 0.000000 -0.000000 0.000000 0.000000 -0.000000 0.000000 0.000000
2.876473 -0.419284 3.223916 0.000000 0.000000 0.000000 -1.314329 -1.613470 -5.905736 1.315334 -0.410970 5.632504 -1.078930 2.344352 -3.683300 -0.000000 0.000000 0.000000 -14.127373 6.902894 -8.372374 -19.171237 6.216108 2.471074 -0.000000 0.000000 0.000000 0.667002 0.200950 6.055620 -24.060964 -1.121167 2.742207 0.000000 0.000000 0.000000 -11.801996 -0.003596 -0.374851 4.595153 -0.725606 1.503010 8.360634 -23.549974 6.640079 -0.000000 0.000000 0.000000 -0.000000 0.000000 0.000000 -0.000000 0.000000 0.000000 -14.847333 -0.718732 7.907094 15.512940 -0.044609 -2.391301 -2.513357 -12.501680 12.954291 0.000000 0.000000 -0.000000 0.000000 0.000000 -0.000000 0.000000 0.000000 -0.000000
